# xmcd
# 
# Track frame offsets:
#     182
#     21125
#     38685
#     62232
#     80195
#     99282
#     125842
#     138567
#     158397
# 
# Disc length: 2633
# 
# Revision: 34
# Processed by: cddbd v1.5.2PL0 Copyright (c) Steve Scherf et al.
# Submitted via: fre:ac v1.0.31
# 
DISCID=720a4709
DTITLE=Prince and The Revolution - Purple Rain: OMP Soundtrack
DYEAR=1984
DGENRE=Funk Rock
TTITLE0=Let's Go Crazy
TTITLE1=Take Me With U
TTITLE2=The Beautiful Ones
TTITLE3=Computer Blue
TTITLE4=Darling Nikki
TTITLE5=When Doves Cry
TTITLE6=I Would Die 4 U
TTITLE7=Baby I'm A Star
TTITLE8=Purple Rain
EXTD=
EXTT0=
EXTT1=
EXTT2=
EXTT3=
EXTT4=
EXTT5=
EXTT6=
EXTT7=
EXTT8=
PLAYORDER=
